<svg xmlns="http://www.w3.org/2000/svg" xmlns:xlink="http://www.w3.org/1999/xlink" width="128" height="128"><defs><linearGradient id="b"><stop offset="0" style="stop-color:#262f22;stop-opacity:1"/></linearGradient><linearGradient id="a"><stop offset="0" style="stop-color:#d4ddd0;stop-opacity:1"/></linearGradient><linearGradient xlink:href="#a" id="c" x1="177.542" x2="363.984" y1="48.433" y2="48.433" gradientUnits="userSpaceOnUse"/><linearGradient xlink:href="#b" id="e" x1="221.714" x2="275.045" y1="48.433" y2="48.433" gradientUnits="userSpaceOnUse"/><linearGradient xlink:href="#b" id="d" x1="265.958" x2="319.29" y1="48.433" y2="48.433" gradientUnits="userSpaceOnUse"/><linearGradient xlink:href="#a" id="f" x1="265.958" x2="275.045" y1="48.434" y2="48.434" gradientUnits="userSpaceOnUse"/></defs><g transform="translate(-121.89 30.749) scale(.68654)"><rect width="186.442" height="109.531" x="177.542" y="-6.333" ry="19.453" style="fill:url(#c);fill-opacity:1;stroke-width:.148857"/><path d="M276.748 16.823c-1.777.039-2.631.778-3.212 1.126-5.013 3.007-7.534 15.242-7.578 30.484.044 15.243 2.565 27.477 7.578 30.483 2.064 1.238 7.588 7.418 45.754-30.483-27.432-27.242-38-31.711-42.542-31.61Z" style="fill:url(#d);fill-opacity:1;stroke-width:.10765"/><path d="M232.504 16.823c-1.777.039-2.632.778-3.212 1.126-5.013 3.007-7.535 15.242-7.578 30.484.043 15.243 2.565 27.477 7.578 30.483 2.064 1.238 7.588 7.418 45.753-30.483-27.431-27.242-38-31.711-42.541-31.61z" style="fill:url(#e);fill-opacity:1;stroke-width:.10765"/><path d="M266.266 39.95c-.195 2.686-.3 5.526-.308 8.483.008 2.958.113 5.798.308 8.484a433.619 433.619 0 0 0 8.78-8.484 432.75 432.75 0 0 0-8.78-8.483z" style="fill:url(#f);fill-opacity:1;stroke-width:.10765"/></g></svg>