<svg xmlns="http://www.w3.org/2000/svg" width="128" height="128"><rect width="128" height="72" y="28" ry="12.787" style="fill:#185002;fill-opacity:1;stroke-width:.1"/><path d="M68.159 42.29c-1.22.027-1.807.535-2.205.774C62.512 45.129 60.78 53.532 60.75 64c.03 10.47 1.76 18.871 5.203 20.936 1.417.85 5.21 5.095 31.411-20.936C78.532 45.29 71.277 42.22 68.16 42.29Z" style="fill:#c6fcb0;fill-opacity:1;stroke-width:.07392"/><path d="M37.783 42.29c-1.22.027-1.806.535-2.205.774-3.442 2.065-5.173 10.468-5.202 20.936.03 10.47 1.76 18.871 5.202 20.936 1.417.85 5.21 5.095 31.412-20.936C48.157 45.29 40.9 42.22 37.783 42.29Z" style="fill:#c6fcb0;fill-opacity:1;stroke-width:.07392"/><path d="M60.962 58.174a83.983 83.983 0 0 0-.21 5.826c.005 2.032.076 3.982.21 5.827A297.723 297.723 0 0 0 66.99 64a297.12 297.12 0 0 0-6.028-5.826z" style="fill:#fbfffa;fill-opacity:1;stroke-width:.07392"/></svg>