<svg xmlns="http://www.w3.org/2000/svg" width="128" height="128"><path d="M0 0h128v128H0z" style="fill:#eefee7;fill-opacity:1"/><rect width="128.359" height="75.409" x="-.359" y="27.602" ry="13.393" style="fill:#195002;fill-opacity:1;stroke-width:.102483"/><path d="M68.109 43.71c-1.22.027-1.807.535-2.205.774-3.442 2.064-5.173 10.464-5.203 20.929.03 10.464 1.76 18.863 5.203 20.927 1.417.85 5.21 5.093 31.411-20.928C78.482 46.71 71.227 43.642 68.11 43.71Z" style="fill:#c7fdaf;fill-opacity:1;stroke-width:.0739058"/><path d="M37.733 43.71c-1.22.027-1.806.535-2.205.774-3.442 2.064-5.173 10.464-5.202 20.929.03 10.464 1.76 18.863 5.202 20.927 1.417.85 5.21 5.093 31.412-20.928C48.107 46.71 40.85 43.642 37.733 43.71Z" style="fill:#c6fdaf;fill-opacity:1;stroke-width:.0739058"/><path d="M60.912 59.589a83.918 83.918 0 0 0-.21 5.824c.005 2.03.076 3.98.21 5.824a297.679 297.679 0 0 0 6.028-5.825 297.073 297.073 0 0 0-6.028-5.823z" style="fill:#edfee6;fill-opacity:1;stroke-width:.0739058"/></svg>