<svg xmlns="http://www.w3.org/2000/svg" width="640" height="550"><rect width="638.5" height="257.456" x="1.5" y="292.544" ry="0" style="fill:#fbfffa;fill-opacity:1;stroke-width:.422339"/><path d="M45.757 378.876h8.263l16.725 43.44h-8.758l-3.39-9.379H41.212l-3.457 9.38h-8.79zm-1.844 26.788h11.984l-5.96-16.85h-.098zm43.311 17.311q-6.19 0-10.074-4.607-3.82-4.674-3.82-13.823 0-9.149 3.886-13.822 3.885-4.739 10.206-4.739 2.634 0 4.609.724 2.041.658 3.49 1.843 1.448 1.185 2.436 2.633h.395q-.197-.922-.395-2.83-.198-1.91-.198-3.555v-12.505h8.297v50.023h-6.453l-1.514-4.673h-.33q-.987 1.448-2.436 2.698-1.448 1.185-3.424 1.909-1.975.724-4.675.724zm2.502-6.714q4.61 0 6.519-2.632 1.91-2.633 1.91-7.965v-1.053q0-5.792-1.844-8.82-1.778-3.027-6.716-3.027-3.754 0-5.795 3.159-2.041 3.094-2.041 8.754T83.8 413.3q2.041 2.962 5.926 2.962zm22.01 21.853q-1.646 0-3.226-.264-1.58-.197-2.7-.526v-6.582q1.12.263 2.173.46 1.054.198 2.37.198 2.042 0 3.425-1.185 1.383-1.119 1.383-4.344v-39.229h8.296v40.085q0 3.29-1.185 5.858-1.185 2.567-3.753 4.015-2.568 1.514-6.782 1.514zm2.964-60.884q0-2.435 1.317-3.357 1.382-.987 3.292-.987 1.843 0 3.226.987 1.383.922 1.383 3.357 0 2.37-1.383 3.423-1.383.987-3.226.987-1.91 0-3.292-.987-1.317-1.053-1.317-3.423zm49.533 9.412v35.675h-6.518l-1.12-4.608h-.395q-1.12 1.843-2.897 3.028-1.778 1.12-3.885 1.646-2.107.592-4.346.592-3.95 0-6.848-1.382-2.897-1.382-4.411-4.213-1.515-2.896-1.515-7.437v-23.3h8.297v21.654q0 3.95 1.58 5.99 1.58 1.974 5.004 1.974 3.358 0 5.268-1.382 1.91-1.448 2.7-4.146.79-2.7.79-6.648v-17.443zm33.402 25.341q0 3.554-1.712 6.056-1.712 2.435-5.07 3.685-3.292 1.251-8.1 1.251-3.752 0-6.452-.527-2.7-.526-5.136-1.645v-7.043q2.634 1.25 5.86 2.106 3.227.856 5.992.856 3.424 0 4.939-1.053 1.514-1.053 1.514-2.83 0-1.053-.593-1.909-.592-.856-2.304-1.777-1.712-.987-5.202-2.436-3.424-1.382-5.728-2.764-2.24-1.382-3.424-3.291-1.12-1.975-1.12-4.936 0-4.805 3.82-7.24 3.818-2.502 10.074-2.502 3.292 0 6.189.658 2.963.593 5.926 1.975l-2.634 6.121q-2.436-1.053-4.872-1.777-2.37-.724-4.873-.724-2.7 0-4.082.856-1.383.79-1.383 2.238 0 1.119.658 1.974.725.79 2.437 1.646 1.778.79 5.004 2.106 3.226 1.25 5.465 2.633 2.305 1.316 3.556 3.29 1.25 1.975 1.25 5.003zm20.298 4.344q1.58 0 3.029-.263 1.449-.33 2.7-.724v6.187q-1.317.592-3.424.987-2.107.461-4.412.461-3.029 0-5.53-.987-2.437-1.053-3.952-3.555-1.448-2.5-1.448-6.976v-18.562h-4.807v-3.62l5.268-2.896 2.633-7.57h5.202v7.833h10.14v6.253h-10.14v18.496q0 2.5 1.317 3.751 1.317 1.185 3.424 1.185zm63.248-41.006-16.264 46.996h-9.021l-16.264-46.996h8.626l9.482 28.764q.46 1.184.921 3.093.527 1.843.988 3.818.527 1.909.79 3.422.198-1.513.659-3.422.527-1.975 1.053-3.818.527-1.909.922-3.093l9.482-28.764zm12.133 11.321v35.675h-8.296v-35.675Zm-4.148-13.756q1.844 0 3.226.987 1.383.922 1.383 3.357 0 2.37-1.383 3.423-1.382.987-3.226.987-1.91 0-3.292-.987-1.317-1.053-1.317-3.423 0-2.435 1.317-3.357 1.382-.987 3.292-.987zm25.04 50.089q-6.19 0-10.075-4.607-3.82-4.674-3.82-13.823 0-9.149 3.886-13.822 3.884-4.739 10.206-4.739 2.633 0 4.609.724 2.041.658 3.49 1.843 1.448 1.185 2.436 2.633h.395q-.198-.922-.395-2.83-.198-1.91-.198-3.555v-12.505h8.297v50.023h-6.453l-1.514-4.673h-.33q-.987 1.448-2.436 2.698-1.449 1.185-3.424 1.909-1.975.724-4.675.724zm2.501-6.714q4.61 0 6.519-2.632 1.91-2.633 1.91-7.965v-1.053q0-5.792-1.844-8.82-1.778-3.027-6.716-3.027-3.754 0-5.795 3.159-2.041 3.094-2.041 8.754t2.041 8.622q2.041 2.962 5.926 2.962zm39.789-30.277q4.806 0 8.23 1.975 3.49 1.909 5.4 5.529 1.91 3.554 1.91 8.688v4.212h-23.573q.131 4.871 2.7 7.57 2.567 2.632 7.11 2.632 3.49 0 6.19-.658 2.765-.724 5.663-2.04v6.648q-2.634 1.25-5.466 1.843-2.83.592-6.782.592-5.201 0-9.284-1.975-4.016-2.04-6.32-6.12-2.24-4.082-2.24-10.137 0-6.121 2.042-10.268 2.107-4.213 5.794-6.319 3.687-2.172 8.626-2.172zm0 6.121q-3.293 0-5.4 2.173-2.04 2.106-2.436 6.318h15.342q0-2.5-.856-4.41-.79-1.908-2.436-2.962-1.646-1.119-4.214-1.119zm54.274 12.309q0 4.476-1.185 7.898-1.185 3.423-3.424 5.858-2.173 2.37-5.4 3.62-3.16 1.185-7.11 1.185-3.622 0-6.717-1.185-3.095-1.25-5.4-3.62-2.238-2.435-3.489-5.858-1.251-3.422-1.251-7.898 0-5.924 2.041-10.005 2.041-4.147 5.86-6.253 3.885-2.172 9.153-2.172 5.004 0 8.757 2.172 3.82 2.106 5.992 6.253 2.173 4.081 2.173 10.005zm-25.482 0q0 3.752.856 6.45.922 2.633 2.766 4.015 1.909 1.382 4.872 1.382 3.029 0 4.873-1.382 1.91-1.382 2.765-4.015.856-2.698.856-6.45 0-3.818-.922-6.385-.856-2.633-2.765-3.949-1.844-1.382-4.873-1.382-4.411 0-6.453 3.028-1.975 3.027-1.975 8.688zm76.285 5.068q0 4.147-2.041 7.174-2.042 3.028-5.926 4.674-3.82 1.645-9.153 1.645-2.568 0-4.938-.33-2.305-.262-4.412-.855-2.041-.592-3.819-1.448v-7.898q2.963 1.316 6.519 2.435 3.555 1.053 7.243 1.053 2.831 0 4.609-.724 1.843-.79 2.7-2.106.855-1.382.855-3.16 0-1.974-1.119-3.356-1.12-1.382-3.292-2.567-2.173-1.185-5.4-2.501-2.172-.922-4.28-2.04-2.04-1.185-3.687-2.831-1.646-1.645-2.634-3.883-.987-2.238-.987-5.266 0-4.015 1.91-6.911 1.975-2.896 5.464-4.41 3.556-1.514 8.231-1.514 3.753 0 7.046.79 3.292.79 6.518 2.238l-2.7 6.78q-2.897-1.251-5.596-1.975-2.7-.724-5.531-.724-2.239 0-3.82.724-1.58.658-2.37 1.909-.79 1.25-.79 2.896 0 1.908.988 3.225.987 1.316 3.029 2.5 2.107 1.12 5.399 2.568 3.819 1.645 6.453 3.423 2.634 1.777 4.082 4.278 1.449 2.501 1.449 6.187zm25.368-23.498q6.255 0 10.075 4.673 3.819 4.608 3.819 13.757 0 6.055-1.778 10.202t-4.939 6.253q-3.16 2.106-7.374 2.106-2.568 0-4.544-.658-1.975-.724-3.358-1.777-1.383-1.12-2.37-2.37h-.527q.263 1.185.395 2.699.132 1.448.132 2.764v14.48h-8.297v-51.47h6.716l1.186 4.738h.395q.987-1.513 2.37-2.698 1.449-1.25 3.424-1.975 2.041-.724 4.675-.724zm-2.37 6.714q-2.897 0-4.675 1.185-1.778 1.119-2.568 3.488-.79 2.37-.856 5.924v1.053q0 3.818.724 6.45.79 2.633 2.568 4.015 1.844 1.383 4.938 1.383 2.634 0 4.28-1.448 1.712-1.449 2.503-4.081.856-2.699.856-6.385 0-5.529-1.91-8.556-1.844-3.028-5.86-3.028zm37.681-6.714q4.807 0 8.23 1.975 3.49 1.909 5.4 5.529 1.91 3.554 1.91 8.688v4.212h-23.573q.132 4.871 2.7 7.57 2.568 2.632 7.111 2.632 3.49 0 6.19-.658 2.765-.724 5.662-2.04v6.648q-2.634 1.25-5.465 1.843-2.831.592-6.782.592-5.202 0-9.284-1.975-4.017-2.04-6.321-6.12-2.24-4.082-2.24-10.137 0-6.121 2.042-10.268 2.107-4.213 5.794-6.319 3.688-2.172 8.626-2.172zm0 6.121q-3.292 0-5.4 2.173-2.04 2.106-2.435 6.318h15.342q0-2.5-.856-4.41-.79-1.908-2.437-2.962-1.646-1.119-4.214-1.119zm36.76-6.12q4.807 0 8.23 1.974 3.49 1.909 5.4 5.529 1.91 3.554 1.91 8.688v4.212h-23.573q.131 4.871 2.7 7.57 2.567 2.632 7.11 2.632 3.49 0 6.19-.658 2.766-.724 5.663-2.04v6.648q-2.634 1.25-5.465 1.843-2.832.592-6.782.592-5.202 0-9.285-1.975-4.016-2.04-6.32-6.12-2.24-4.082-2.24-10.137 0-6.121 2.042-10.268 2.107-4.213 5.794-6.319 3.687-2.172 8.626-2.172zm0 6.12q-3.292 0-5.4 2.173-2.04 2.106-2.436 6.318h15.342q0-2.5-.856-4.41-.79-1.908-2.436-2.962-1.646-1.119-4.214-1.119zm34.191 30.87q-6.19 0-10.074-4.607-3.819-4.674-3.819-13.823 0-9.149 3.885-13.822 3.885-4.739 10.206-4.739 2.634 0 4.61.724 2.04.658 3.489 1.843 1.448 1.185 2.436 2.633h.395q-.197-.922-.395-2.83-.197-1.91-.197-3.555v-12.505h8.296v50.023h-6.453l-1.514-4.673h-.33q-.987 1.448-2.436 2.698-1.448 1.185-3.424 1.909-1.975.724-4.675.724zm2.503-6.714q4.609 0 6.518-2.632 1.91-2.633 1.91-7.965v-1.053q0-5.792-1.844-8.82-1.778-3.027-6.716-3.027-3.753 0-5.795 3.159-2.04 3.094-2.04 8.754t2.04 8.622q2.042 2.962 5.927 2.962z" aria-label="Adjust Video Speed" style="font-weight:600;font-size:132px;font-family:&quot;League Spartan Thin&quot;;-inkscape-font-specification:&quot;League Spartan Thin, Semi-Bold&quot;;letter-spacing:-3px;fill:#175200;fill-opacity:1;stroke-width:.498732"/><path d="M66.335 458.402q4.214 0 6.768 2.936 2.597 2.936 2.597 8.85 0 3.873-1.192 6.553-1.15 2.638-3.278 4-2.085 1.32-4.937 1.32-1.746 0-3.108-.469-1.362-.468-2.34-1.191-.937-.766-1.618-1.66h-.256q.085.724.17 1.83.086 1.106.086 1.915v9.36H55.48v-33.018h3.064l.511 3.106h.17q.682-.979 1.618-1.787.98-.809 2.299-1.277 1.362-.468 3.192-.468zm-.68 3.149q-2.3 0-3.704.893-1.405.851-2.043 2.596-.639 1.745-.681 4.425v.724q0 2.808.595 4.765.596 1.958 2.001 2.979 1.447 1.02 3.916 1.02 2.086 0 3.406-1.148 1.362-1.149 2-3.106.681-2 .681-4.553 0-3.915-1.532-6.255-1.49-2.34-4.64-2.34zm19.75 20.084h-3.746v-32.339h3.746zm15.877-23.19q4.172 0 6.173 1.83 2 1.829 2 5.829v15.53h-2.724l-.724-3.233h-.17q-.979 1.234-2.043 2.085-1.022.808-2.384 1.191-1.32.383-3.235.383-2.043 0-3.703-.723-1.618-.724-2.554-2.213-.937-1.532-.937-3.83 0-3.403 2.682-5.233 2.682-1.872 8.258-2.042l3.873-.128v-1.362q0-2.85-1.234-3.957-1.234-1.106-3.49-1.106-1.788 0-3.406.553-1.617.51-3.022 1.191l-1.15-2.808q1.49-.808 3.534-1.362 2.043-.595 4.256-.595zm1.107 12.17q-4.257.17-5.917 1.36-1.617 1.192-1.617 3.362 0 1.915 1.15 2.808 1.191.894 3.021.894 2.895 0 4.81-1.574 1.916-1.617 1.916-4.936v-2.043zm10.557-11.787h4l4.939 12.977q.425 1.15.766 2.213.383 1.064.68 2.085.299.979.47 1.915h.17q.255-1.064.808-2.766.554-1.745 1.15-3.49l4.64-12.934h4.043l-9.833 25.955q-.809 2.128-1.915 3.702-1.064 1.617-2.64 2.468-1.532.894-3.745.894-1.022 0-1.788-.128-.766-.085-1.32-.213v-2.978q.469.085 1.107.17.681.085 1.405.085 1.32 0 2.256-.51.979-.469 1.66-1.405.681-.893 1.15-2.127l1.191-3.021zm41.374 22.807-8.64-22.807h4l4.853 13.446q.34.936.724 2.084.383 1.15.681 2.213.298 1.021.426 1.745h.17q.17-.724.468-1.787.34-1.064.724-2.213.425-1.149.723-2.042l4.853-13.446h4.001l-8.683 22.807zm20.347-22.807v22.807h-3.746v-22.807zm-1.83-8.553q.851 0 1.49.596.68.553.68 1.787 0 1.191-.68 1.787-.639.596-1.49.596-.937 0-1.575-.596-.639-.596-.639-1.787 0-1.234.639-1.787.638-.596 1.575-.596zm17.154 31.785q-4.256 0-6.81-2.936-2.554-2.978-2.554-8.85t2.554-8.85q2.596-3.022 6.853-3.022 1.788 0 3.107.468 1.32.426 2.299 1.192.979.765 1.66 1.702h.255q-.042-.554-.17-1.617-.085-1.107-.085-1.745v-9.106h3.746v32.339h-3.022l-.554-3.064h-.17q-.681.979-1.66 1.787-.98.766-2.341 1.234-1.32.468-3.108.468zm.596-3.106q3.618 0 5.066-1.957 1.49-2 1.49-6v-.68q0-4.256-1.405-6.511-1.405-2.298-5.193-2.298-3.023 0-4.555 2.426-1.49 2.382-1.49 6.425 0 4.085 1.49 6.34 1.532 2.255 4.597 2.255zm26.306-20.552q2.937 0 5.023 1.277 2.129 1.276 3.235 3.616 1.15 2.298 1.15 5.404v2.255h-15.622q.085 3.873 1.958 5.915 1.915 2 5.32 2 2.171 0 3.832-.383 1.702-.426 3.49-1.192v3.277q-1.745.766-3.448 1.106-1.703.383-4.044.383-3.235 0-5.746-1.319-2.47-1.319-3.874-3.915-1.362-2.638-1.362-6.425 0-3.744 1.235-6.425 1.277-2.68 3.533-4.127 2.298-1.447 5.32-1.447zm-.042 3.064q-2.682 0-4.257 1.744-1.532 1.702-1.83 4.766h11.62q0-1.957-.595-3.404-.596-1.447-1.83-2.255-1.193-.851-3.108-.851zm35.075 8.723q0 2.85-.767 5.063-.723 2.17-2.128 3.702-1.362 1.532-3.363 2.34-1.958.766-4.384.766-2.256 0-4.172-.766-1.915-.808-3.32-2.34-1.404-1.532-2.213-3.702-.766-2.213-.766-5.063 0-3.787 1.277-6.383 1.277-2.638 3.66-4 2.384-1.404 5.662-1.404 3.107 0 5.448 1.404 2.384 1.362 3.704 4 1.362 2.596 1.362 6.383zm-17.24 0q0 2.68.681 4.68.724 1.957 2.214 3.021 1.49 1.064 3.788 1.064 2.299 0 3.789-1.064 1.49-1.064 2.17-3.02.724-2 .724-4.681 0-2.724-.724-4.638-.723-1.915-2.213-2.936-1.447-1.064-3.788-1.064-3.49 0-5.066 2.298-1.575 2.297-1.575 6.34zm38.012 5.148q0 2.213-1.107 3.702-1.106 1.49-3.15 2.255-2.043.766-4.852.766-2.384 0-4.129-.383-1.703-.383-3.022-1.064v-3.404q1.362.681 3.277 1.277 1.958.553 3.96.553 2.851 0 4.128-.894 1.277-.936 1.277-2.467 0-.851-.468-1.532t-1.703-1.362q-1.192-.68-3.448-1.532-2.213-.85-3.788-1.702-1.575-.85-2.427-2.042-.85-1.192-.85-3.064 0-2.893 2.34-4.468 2.384-1.574 6.215-1.574 2.086 0 3.874.426 1.83.383 3.405 1.106l-1.277 2.978q-1.447-.595-3.022-1.02-1.575-.426-3.235-.426-2.299 0-3.533.766-1.192.723-1.192 2 0 .936.553 1.616.553.639 1.83 1.277 1.32.596 3.491 1.447 2.17.808 3.703 1.66 1.533.85 2.341 2.084.81 1.191.81 3.021zm31.457 0q0 2.213-1.107 3.702-1.107 1.49-3.15 2.255-2.043.766-4.852.766-2.384 0-4.13-.383-1.702-.383-3.022-1.064v-3.404q1.363.681 3.278 1.277 1.958.553 3.959.553 2.852 0 4.129-.894 1.277-.936 1.277-2.467 0-.851-.468-1.532-.469-.681-1.703-1.362-1.192-.68-3.448-1.532-2.213-.85-3.788-1.702-1.575-.85-2.427-2.042-.851-1.192-.851-3.064 0-2.893 2.341-4.468 2.384-1.574 6.215-1.574 2.086 0 3.873.426 1.83.383 3.406 1.106l-1.277 2.978q-1.448-.595-3.023-1.02-1.574-.426-3.235-.426-2.298 0-3.533.766-1.191.723-1.191 2 0 .936.553 1.616.553.639 1.83 1.277 1.32.596 3.49 1.447 2.172.808 3.704 1.66 1.532.85 2.341 2.084.809 1.191.809 3.021zm9.28 6.298h-3.746v-32.339h3.745zm27.072-11.446q0 2.85-.766 5.063-.724 2.17-2.129 3.702-1.362 1.532-3.362 2.34-1.959.766-4.385.766-2.256 0-4.171-.766-1.916-.808-3.32-2.34-1.405-1.532-2.214-3.702-.766-2.213-.766-5.063 0-3.787 1.277-6.383 1.277-2.638 3.66-4 2.384-1.404 5.662-1.404 3.107 0 5.448 1.404 2.384 1.362 3.704 4 1.362 2.596 1.362 6.383zm-17.24 0q0 2.68.681 4.68.724 1.957 2.214 3.021 1.49 1.064 3.788 1.064 2.299 0 3.789-1.064 1.49-1.064 2.17-3.02.724-2 .724-4.681 0-2.724-.723-4.638-.724-1.915-2.214-2.936-1.447-1.064-3.788-1.064-3.49 0-5.066 2.298-1.575 2.297-1.575 6.34zm37.033-1.447q-.255-.894-.51-1.745-.256-.893-.469-1.66-.17-.808-.34-1.488-.17-.681-.256-1.15h-.17q-.085.469-.255 1.15-.128.68-.34 1.489-.171.808-.427 1.702-.212.85-.51 1.744l-4.087 12.808h-4.256l-6.258-22.807h3.874l3.15 12.17q.34 1.233.638 2.51.298 1.234.511 2.383.255 1.106.34 1.915h.17q.129-.511.299-1.277.17-.766.34-1.617l.426-1.702q.255-.85.468-1.532l4.044-12.85h4.087l3.916 12.85q.298.979.596 2.085.34 1.107.596 2.17.255 1.022.34 1.83h.17q.085-.723.298-1.787.256-1.106.554-2.383.34-1.319.68-2.596l3.193-12.169h3.831l-6.342 22.807h-4.385zm27.54-10.34q2.938 0 5.024 1.277 2.128 1.276 3.235 3.616 1.15 2.298 1.15 5.404v2.255h-15.623q.085 3.873 1.958 5.915 1.916 2 5.321 2 2.171 0 3.831-.383 1.703-.426 3.49-1.192v3.277q-1.745.766-3.447 1.106-1.703.383-4.044.383-3.235 0-5.747-1.319-2.469-1.319-3.873-3.915-1.362-2.638-1.362-6.425 0-3.744 1.234-6.425 1.277-2.68 3.533-4.127 2.299-1.447 5.32-1.447zm-.042 3.064q-2.681 0-4.256 1.744-1.533 1.702-1.83 4.766h11.62q0-1.957-.596-3.404-.596-1.447-1.83-2.255-1.192-.851-3.108-.851zm25.88-3.064q.64 0 1.363.085.766.043 1.32.17l-.469 3.447q-.553-.128-1.234-.213-.639-.085-1.235-.085-1.32 0-2.511.553-1.192.553-2.128 1.575-.937.978-1.49 2.382-.511 1.405-.511 3.15v12.169h-3.746v-22.807h3.065l.426 4.17h.17q.723-1.277 1.745-2.298 1.022-1.064 2.341-1.66 1.32-.638 2.895-.638zm27.329-7.616q2.298 0 3.916.808 1.66.766 2.554 2.213.894 1.446.894 3.531 0 2.681-1.746 4.553-1.702 1.872-4.341 3.404l8.215 7.915q1.107-1.32 1.788-3.021.723-1.745 1.192-3.745h3.788q-.681 2.723-1.703 5.064-1.021 2.34-2.639 4.084l6.215 6.043h-5.065l-3.704-3.575q-1.32 1.192-2.852 2.085-1.532.894-3.405 1.404-1.83.511-4.214.511-2.937 0-5.108-.936-2.128-.979-3.32-2.85-1.15-1.873-1.15-4.554 0-2.17.767-3.744.808-1.575 2.298-2.809 1.49-1.233 3.49-2.382-.893-1.022-1.745-2.128-.851-1.106-1.404-2.383-.554-1.319-.554-2.85 0-2.085.937-3.575.936-1.489 2.681-2.255 1.788-.808 4.215-.808zm-1.873 16.339q-1.533.893-2.64 1.83-1.064.893-1.66 2-.596 1.106-.596 2.638 0 2.34 1.575 3.744 1.575 1.404 4.215 1.404 2.724 0 4.682-.893 1.958-.894 3.277-2.128zm1.745-13.276q-1.788 0-2.937.936-1.107.936-1.107 2.596 0 1.532.809 2.85.809 1.277 2.341 2.852 2.511-1.447 3.576-2.724 1.106-1.319 1.106-3.02 0-1.532-1.021-2.511-1.022-.979-2.767-.979zm43.546 7.872h-5.747v19.914h-3.746V461.72h-4.001v-1.745l4.001-1.276v-1.32q0-2.935.852-4.765.893-1.83 2.554-2.68 1.66-.851 4-.851 1.363 0 2.47.255 1.149.213 1.958.51l-.98 2.937q-.68-.213-1.574-.426t-1.83-.213q-1.874 0-2.81 1.277-.894 1.234-.894 3.914v1.49h5.747zm12.77-3.276q4.171 0 6.172 1.83 2 1.829 2 5.829v15.53h-2.724l-.724-3.233h-.17q-.979 1.234-2.043 2.085-1.022.808-2.384 1.191-1.32.383-3.235.383-2.043 0-3.703-.723-1.618-.724-2.554-2.213-.937-1.532-.937-3.83 0-3.403 2.682-5.233 2.682-1.872 8.258-2.042l3.874-.128v-1.362q0-2.85-1.235-3.957-1.234-1.106-3.49-1.106-1.788 0-3.406.553-1.617.51-3.022 1.191l-1.15-2.808q1.49-.808 3.534-1.362 2.043-.595 4.257-.595zm1.106 12.17q-4.256.17-5.916 1.36-1.618 1.192-1.618 3.362 0 1.915 1.15 2.808 1.191.894 3.022.894 2.894 0 4.81-1.574 1.915-1.617 1.915-4.936v-2.043zm28.988 4.722q0 2.213-1.107 3.702-1.106 1.49-3.15 2.255-2.043.766-4.852.766-2.384 0-4.129-.383-1.703-.383-3.022-1.064v-3.404q1.362.681 3.277 1.277 1.958.553 3.96.553 2.851 0 4.128-.894 1.277-.936 1.277-2.467 0-.851-.468-1.532t-1.703-1.362q-1.192-.68-3.448-1.532-2.213-.85-3.788-1.702-1.575-.85-2.426-2.042-.852-1.192-.852-3.064 0-2.893 2.341-4.468 2.384-1.574 6.215-1.574 2.086 0 3.874.426 1.83.383 3.405 1.106l-1.277 2.978q-1.447-.595-3.022-1.02-1.575-.426-3.235-.426-2.299 0-3.533.766-1.192.723-1.192 2 0 .936.553 1.616.554.639 1.83 1.277 1.32.596 3.491 1.447 2.17.808 3.703 1.66 1.533.85 2.341 2.084.81 1.191.81 3.021zm13.153 3.66q.852 0 1.746-.128.893-.17 1.447-.34v2.85q-.596.298-1.703.468-1.107.213-2.128.213-1.788 0-3.32-.596-1.49-.638-2.427-2.17-.936-1.531-.936-4.297V461.72h-3.235v-1.787l3.277-1.49 1.49-4.85h2.214v5.234h6.598v2.893h-6.598v13.19q0 2.086.979 3.107 1.021.978 2.596.978zm16.559-20.595q2.937 0 5.023 1.277 2.128 1.276 3.235 3.616 1.149 2.298 1.149 5.404v2.255h-15.622q.085 3.873 1.958 5.915 1.916 2 5.32 2 2.172 0 3.832-.383 1.703-.426 3.49-1.192v3.277q-1.745.766-3.448 1.106-1.702.383-4.043.383-3.235 0-5.747-1.319-2.469-1.319-3.873-3.915-1.363-2.638-1.363-6.425 0-3.744 1.235-6.425 1.277-2.68 3.533-4.127 2.299-1.447 5.32-1.447zm-.043 3.064q-2.681 0-4.256 1.744-1.533 1.702-1.83 4.766h11.62q0-1.957-.596-3.404-.596-1.447-1.83-2.255-1.192-.851-3.108-.851zm25.88-3.064q.64 0 1.363.085.766.043 1.32.17l-.469 3.447q-.553-.128-1.234-.213-.639-.085-1.235-.085-1.32 0-2.51.553-1.193.553-2.13 1.575-.936.978-1.49 2.382-.51 1.405-.51 3.15v12.169h-3.746v-22.807h3.065l.426 4.17h.17q.724-1.277 1.745-2.298 1.022-1.064 2.341-1.66 1.32-.638 2.895-.638z" aria-label="play videos slower &amp; faster" style="font-size:85.3333px;font-family:&quot;League Spartan Thin&quot;;-inkscape-font-specification:&quot;League Spartan Thin, &quot;;text-align:center;text-anchor:middle;fill:#175200;fill-opacity:1;stroke-width:.498732"/><g aria-label="with musical finer steps" style="font-size:85.3333px;font-family:&quot;League Spartan Thin&quot;;-inkscape-font-specification:&quot;League Spartan Thin, &quot;;text-align:center;text-anchor:middle;fill:#175200;fill-opacity:1"><path d="M205.184 1035.971q-.512-1.792-1.024-3.498-.512-1.792-.938-3.328-.342-1.622-.683-2.987t-.512-2.304h-.341q-.171.939-.512 2.304-.256 1.365-.683 2.987-.341 1.621-.853 3.413-.427 1.707-1.024 3.499l-8.192 25.685h-8.534l-12.544-45.739h7.766l6.314 24.406q.683 2.474 1.28 5.034.598 2.475 1.024 4.779.512 2.219.683 3.84h.341q.256-1.024.598-2.56.341-1.536.682-3.243l.854-3.413q.512-1.707.938-3.072l8.107-25.77h8.192l7.85 25.77q.598 1.963 1.195 4.181.683 2.219 1.195 4.352.512 2.048.683 3.67h.341q.17-1.451.597-3.584.512-2.219 1.11-4.779.682-2.645 1.365-5.205l6.4-24.406h7.68l-12.715 45.739h-8.789zM250.24 1016.089v45.738h-7.509v-45.738zm-3.669-17.152q1.707 0 2.987 1.194 1.365 1.11 1.365 3.584 0 2.39-1.365 3.584-1.28 1.195-2.987 1.195-1.877 0-3.157-1.195-1.28-1.194-1.28-3.584 0-2.474 1.28-3.584 1.28-1.194 3.157-1.194zm33.45 57.6q1.707 0 3.5-.256 1.791-.342 2.9-.683v5.717q-1.194.598-3.413.939-2.218.427-4.266.427-3.584 0-6.656-1.195-2.987-1.28-4.864-4.352-1.878-3.072-1.878-8.619v-26.624h-6.485v-3.584l6.57-2.986 2.987-9.728h4.438v10.496h13.226v5.802h-13.226v26.454q0 4.181 1.962 6.229 2.048 1.963 5.206 1.963zm23.04-40.534q0 1.622-.17 3.328-.085 1.707-.256 3.072h.512q1.45-2.389 3.67-3.925 2.218-1.536 4.949-2.304 2.73-.853 5.632-.853 5.546 0 9.216 1.792 3.754 1.706 5.632 5.376 1.877 3.669 1.877 9.557v29.781h-7.424v-29.269q0-5.547-2.475-8.277-2.474-2.731-7.765-2.731-5.12 0-8.021 1.963-2.902 1.877-4.182 5.632-1.194 3.669-1.194 9.045v23.637h-7.51v-64.853h7.51zm117.59-.768q7.765 0 11.605 4.011 3.84 3.925 3.84 12.8v29.781h-7.424v-29.44q0-5.376-2.304-8.106-2.218-2.731-6.997-2.731-6.656 0-9.557 3.84-2.816 3.84-2.816 11.179v25.258h-7.424v-29.44q0-3.584-1.024-5.973-1.024-2.475-3.072-3.67-2.048-1.194-5.291-1.194-4.608 0-7.253 1.963-2.646 1.877-3.84 5.546-1.11 3.67-1.11 9.046v23.722h-7.51v-45.738h6.06l1.109 6.229h.427q1.45-2.39 3.498-3.925 2.134-1.622 4.694-2.39t5.29-.768q5.29 0 8.79 1.878 3.584 1.877 5.205 5.802h.427q2.304-3.925 6.229-5.802 4.01-1.878 8.448-1.878zm67.84.854v45.738h-6.144l-1.11-6.058h-.34q-1.452 2.389-3.756 3.925t-5.034 2.219q-2.73.768-5.718.768-5.46 0-9.216-1.707-3.669-1.792-5.546-5.461-1.878-3.67-1.878-9.472v-29.952h7.595v29.44q0 5.461 2.475 8.192 2.474 2.73 7.68 2.73 5.12 0 8.021-1.877 2.987-1.963 4.181-5.632 1.28-3.755 1.28-9.045v-23.808zm44.288 33.109q0 4.437-2.219 7.424t-6.315 4.523q-4.096 1.536-9.728 1.536-4.778 0-8.277-.768-3.413-.768-6.059-2.134v-6.826q2.731 1.365 6.571 2.56 3.925 1.109 7.936 1.109 5.717 0 8.277-1.792 2.56-1.877 2.56-4.95 0-1.706-.938-3.071-.939-1.366-3.414-2.731-2.389-1.365-6.912-3.072-4.437-1.707-7.594-3.413-3.158-1.707-4.864-4.096-1.707-2.39-1.707-6.144 0-5.803 4.693-8.96 4.78-3.158 12.46-3.158 4.18 0 7.764.854 3.67.768 6.827 2.218l-2.56 5.974q-2.901-1.195-6.059-2.048-3.157-.854-6.485-.854-4.608 0-7.083 1.536-2.389 1.451-2.389 4.011 0 1.877 1.11 3.243 1.109 1.28 3.669 2.56 2.645 1.194 6.997 2.901 4.352 1.621 7.424 3.328 3.072 1.707 4.693 4.181 1.622 2.39 1.622 6.059zm18.602-33.11v45.74h-7.509v-45.74zm-3.669-17.151q1.707 0 2.987 1.194 1.365 1.11 1.365 3.584 0 2.39-1.365 3.584-1.28 1.195-2.987 1.195-1.877 0-3.157-1.195-1.28-1.194-1.28-3.584 0-2.474 1.28-3.584 1.28-1.194 3.157-1.194zm36.523 63.744q-6.059 0-10.838-2.475-4.693-2.475-7.424-7.68-2.645-5.205-2.645-13.312 0-8.448 2.816-13.739 2.816-5.29 7.595-7.765 4.864-2.475 11.008-2.475 3.498 0 6.741.768 3.243.683 5.29 1.707l-2.303 6.23q-2.048-.769-4.779-1.451-2.73-.683-5.12-.683-4.608 0-7.595 1.963-2.986 1.962-4.437 5.802-1.45 3.84-1.45 9.558 0 5.461 1.45 9.301t4.352 5.803q2.901 1.962 7.253 1.962 3.755 0 6.571-.768 2.901-.768 5.29-1.877v6.656q-2.303 1.195-5.12 1.792-2.73.683-6.655.683zm39.936-47.36q8.362 0 12.373 3.669 4.01 3.67 4.01 11.69v31.147h-5.46l-1.451-6.485h-.342q-1.962 2.475-4.096 4.181-2.048 1.622-4.778 2.39-2.646.768-6.486.768-4.096 0-7.424-1.451-3.242-1.45-5.12-4.437-1.877-3.072-1.877-7.68 0-6.827 5.376-10.496 5.376-3.755 16.555-4.096l7.765-.256v-2.731q0-5.717-2.475-7.936-2.474-2.219-6.997-2.219-3.584 0-6.827 1.11-3.242 1.024-6.058 2.389l-2.304-5.632q2.986-1.621 7.082-2.73 4.096-1.195 8.534-1.195zm2.218 24.405q-8.533.341-11.861 2.73-3.243 2.39-3.243 6.742 0 3.84 2.304 5.632 2.39 1.792 6.059 1.792 5.803 0 9.643-3.157 3.84-3.243 3.84-9.899v-4.096zm35.84 22.101h-7.509v-64.853h7.51zM720 1021.891h-11.52v39.936h-7.51v-39.936h-8.02v-3.498l8.02-2.56v-2.646q0-5.888 1.707-9.557 1.792-3.67 5.12-5.376 3.328-1.707 8.022-1.707 2.73 0 4.949.512 2.304.427 3.925 1.024l-1.962 5.888q-1.366-.426-3.158-.853-1.792-.427-3.669-.427-3.755 0-5.632 2.56-1.792 2.475-1.792 7.851v2.987H720zm15.787-5.802v45.738h-7.51v-45.738zm-3.67-17.152q1.707 0 2.987 1.194 1.365 1.11 1.365 3.584 0 2.39-1.365 3.584-1.28 1.195-2.987 1.195-1.877 0-3.157-1.195-1.28-1.194-1.28-3.584 0-2.474 1.28-3.584 1.28-1.194 3.157-1.194zm40.192 16.298q8.192 0 12.374 4.011 4.18 3.925 4.18 12.8v29.781h-7.423v-29.269q0-5.547-2.475-8.277-2.474-2.731-7.765-2.731-7.595 0-10.496 4.267-2.901 4.266-2.901 12.288v23.722h-7.51v-45.738h6.059l1.11 6.229h.426q1.536-2.39 3.755-3.925 2.304-1.622 5.034-2.39t5.632-.768zm48.384 0q5.888 0 10.07 2.56 4.266 2.56 6.485 7.254 2.304 4.608 2.304 10.837v4.523h-31.317q.17 7.765 3.925 11.861 3.84 4.01 10.667 4.01 4.352 0 7.68-.767 3.413-.854 6.997-2.39v6.571q-3.499 1.536-6.912 2.219-3.413.768-8.107.768-6.485 0-11.52-2.646-4.95-2.645-7.765-7.85-2.73-5.291-2.73-12.886 0-7.509 2.474-12.885 2.56-5.376 7.083-8.277 4.608-2.902 10.666-2.902zm-.085 6.144q-5.376 0-8.533 3.499-3.072 3.413-3.67 9.557h23.296q0-3.925-1.194-6.826-1.195-2.902-3.67-4.523-2.39-1.707-6.23-1.707zm51.883-6.144q1.28 0 2.73.171 1.536.085 2.646.341l-.94 6.912q-1.108-.256-2.474-.426-1.28-.171-2.474-.171-2.646 0-5.035 1.11-2.39 1.109-4.267 3.157-1.877 1.962-2.986 4.778-1.024 2.816-1.024 6.315v24.405h-7.51v-45.738h6.144l.854 8.362h.34q1.452-2.56 3.5-4.608 2.048-2.133 4.693-3.328 2.645-1.28 5.803-1.28zm65.877 33.963q0 4.437-2.219 7.424-2.218 2.987-6.314 4.523-4.096 1.536-9.728 1.536-4.78 0-8.278-.768-3.413-.768-6.058-2.134v-6.826q2.73 1.365 6.57 2.56 3.926 1.109 7.936 1.109 5.718 0 8.278-1.792 2.56-1.877 2.56-4.95 0-1.706-.94-3.071-.938-1.366-3.412-2.731-2.39-1.365-6.912-3.072-4.438-1.707-7.595-3.413-3.157-1.707-4.864-4.096-1.707-2.39-1.707-6.144 0-5.803 4.694-8.96 4.778-3.158 12.458-3.158 4.182 0 7.766.854 3.669.768 6.826 2.218l-2.56 5.974q-2.901-1.195-6.058-2.048-3.158-.854-6.486-.854-4.608 0-7.082 1.536-2.39 1.451-2.39 4.011 0 1.877 1.11 3.243 1.109 1.28 3.669 2.56 2.645 1.194 6.997 2.901 4.352 1.621 7.424 3.328 3.072 1.707 4.693 4.181 1.622 2.39 1.622 6.059zm26.368 7.339q1.706 0 3.498-.256 1.792-.342 2.902-.683v5.717q-1.195.598-3.414.939-2.218.427-4.266.427-3.584 0-6.656-1.195-2.987-1.28-4.864-4.352-1.878-3.072-1.878-8.619v-26.624h-6.485v-3.584l6.57-2.986 2.987-9.728h4.438v10.496h13.226v5.802h-13.226v26.454q0 4.181 1.962 6.229 2.048 1.963 5.206 1.963zm33.195-41.302q5.888 0 10.069 2.56 4.267 2.56 6.485 7.254 2.304 4.608 2.304 10.837v4.523h-31.317q.17 7.765 3.925 11.861 3.84 4.01 10.667 4.01 4.352 0 7.68-.767 3.413-.854 6.997-2.39v6.571q-3.498 1.536-6.912 2.219-3.413.768-8.106.768-6.486 0-11.52-2.646-4.95-2.645-7.766-7.85-2.73-5.291-2.73-12.886 0-7.509 2.474-12.885 2.56-5.376 7.083-8.277 4.608-2.902 10.667-2.902zm-.086 6.144q-5.376 0-8.533 3.499-3.072 3.413-3.67 9.557h23.297q0-3.925-1.195-6.826-1.195-2.902-3.67-4.523-2.389-1.707-6.229-1.707zm52.31-6.144q8.448 0 13.568 5.888 5.205 5.888 5.205 17.75 0 7.765-2.39 13.141-2.303 5.29-6.57 8.021-4.181 2.646-9.899 2.646-3.498 0-6.23-.939-2.73-.939-4.692-2.39-1.878-1.535-3.243-3.327h-.512q.17 1.45.341 3.669.17 2.219.17 3.84v18.773h-7.508v-66.218h6.144l1.024 6.229h.34q1.366-1.963 3.244-3.584 1.962-1.621 4.608-2.56 2.73-.939 6.4-.939zm-1.366 6.315q-4.608 0-7.424 1.792-2.816 1.707-4.096 5.205-1.28 3.499-1.365 8.875v1.45q0 5.633 1.195 9.558 1.194 3.925 4.01 5.973 2.902 2.048 7.85 2.048 4.182 0 6.828-2.304 2.73-2.304 4.01-6.229 1.366-4.01 1.366-9.13 0-7.851-3.072-12.545-2.987-4.693-9.302-4.693zm61.867 27.648q0 4.437-2.219 7.424t-6.315 4.523q-4.096 1.536-9.728 1.536-4.778 0-8.277-.768-3.413-.768-6.059-2.134v-6.826q2.731 1.365 6.571 2.56 3.925 1.109 7.936 1.109 5.717 0 8.277-1.792 2.56-1.877 2.56-4.95 0-1.706-.938-3.071-.939-1.366-3.414-2.731-2.389-1.365-6.912-3.072-4.437-1.707-7.594-3.413-3.158-1.707-4.864-4.096-1.707-2.39-1.707-6.144 0-5.803 4.693-8.96 4.78-3.158 12.46-3.158 4.18 0 7.764.854 3.67.768 6.827 2.218l-2.56 5.974q-2.901-1.195-6.059-2.048-3.157-.854-6.485-.854-4.608 0-7.083 1.536-2.389 1.451-2.389 4.011 0 1.877 1.11 3.243 1.109 1.28 3.669 2.56 2.645 1.194 6.997 2.901 4.352 1.621 7.424 3.328 3.072 1.707 4.693 4.181 1.622 2.39 1.622 6.059z" style="fill:#175200;fill-opacity:1" transform="matrix(.49883 0 0 .49864 1.25 1.25)"/></g><rect width="638.5" height="359.018" x="1.5" y="1.5" ry="63.763" style="fill:#185002;fill-opacity:1;stroke-width:.498732"/><path d="M341.245 72.506c-6.086.134-9.011 2.665-11 3.858-17.168 10.297-25.803 52.197-25.95 104.398.147 52.2 8.782 94.096 25.95 104.394 7.07 4.24 25.987 25.402 156.69-104.397-93.942-93.292-130.137-108.598-145.69-108.253Z" style="fill:#c6fcb0;fill-opacity:1;stroke-width:.368663"/><path d="M189.723 72.506c-6.086.134-9.011 2.665-11 3.858-17.168 10.297-25.803 52.197-25.95 104.398.147 52.2 8.782 94.096 25.95 104.394 7.07 4.24 25.987 25.402 156.691-104.397-93.943-93.292-130.138-108.598-145.69-108.253Z" style="fill:#c6fcb0;fill-opacity:1;stroke-width:.368663"/><path d="M305.348 151.71c-.668 9.198-1.025 18.923-1.054 29.052.029 10.13.386 19.856 1.054 29.054a1484.908 1484.908 0 0 0 30.066-29.056 1481.91 1481.91 0 0 0-30.066-29.05Z" style="fill:#fbfffa;fill-opacity:1;stroke-width:.368663"/></svg>