<svg xmlns="http://www.w3.org/2000/svg" width="320" height="320"><rect width="319.25" height="173.728" x=".75" y="146.272" ry="0" style="fill:#eefee7;fill-opacity:1;stroke-width:.245318"/><path d="M22.878 215.438h4.132l8.362 21.72h-4.378l-1.696-4.69h-8.691l-1.729 4.69h-4.395zm-.922 13.394h5.992l-2.98-8.425h-.049zm21.656 8.656q-3.095 0-5.037-2.304-1.91-2.337-1.91-6.911 0-4.575 1.943-6.911 1.942-2.37 5.103-2.37 1.317 0 2.304.362 1.021.33 1.745.922.725.592 1.218 1.316h.198q-.099-.46-.198-1.415-.098-.955-.098-1.777v-6.253h4.148v25.011h-3.226l-.758-2.336h-.164q-.494.724-1.218 1.35-.725.591-1.712.954-.988.362-2.338.362zm1.251-3.357q2.305 0 3.26-1.317.954-1.316.954-3.982v-.526q0-2.896-.922-4.41-.888-1.514-3.358-1.514-1.876 0-2.897 1.58-1.02 1.546-1.02 4.377 0 2.83 1.02 4.31 1.02 1.482 2.963 1.482zm11.005 10.926q-.823 0-1.613-.132-.79-.099-1.35-.263v-3.291q.56.132 1.087.23.526.099 1.185.099 1.02 0 1.712-.592.691-.56.691-2.172V219.32h4.149v20.042q0 1.646-.593 2.93-.593 1.283-1.877 2.007-1.284.757-3.39.757zm1.482-30.442q0-1.218.658-1.678.692-.494 1.646-.494.922 0 1.614.494.691.46.691 1.678 0 1.185-.691 1.711-.692.494-1.614.494-.954 0-1.646-.494-.658-.526-.658-1.71zm24.767 4.706v17.837h-3.26l-.56-2.303H78.1q-.56.921-1.449 1.514-.888.56-1.942.822-1.053.297-2.173.297-1.975 0-3.424-.692-1.448-.69-2.206-2.106-.757-1.448-.757-3.719v-11.65h4.148v10.828q0 1.974.79 2.994.79.988 2.503.988 1.679 0 2.633-.691.955-.724 1.35-2.074.395-1.35.395-3.324v-8.72zm16.7 12.67q0 1.778-.856 3.028-.856 1.218-2.535 1.843-1.646.626-4.05.626-1.876 0-3.226-.264-1.35-.263-2.567-.823v-3.52q1.316.624 2.93 1.052 1.613.428 2.996.428 1.712 0 2.469-.526.757-.527.757-1.416 0-.526-.296-.954-.297-.428-1.153-.889-.856-.493-2.6-1.217-1.712-.691-2.865-1.382-1.12-.692-1.712-1.646-.56-.987-.56-2.468 0-2.403 1.91-3.62 1.91-1.25 5.037-1.25 1.646 0 3.095.328 1.482.296 2.963.988l-1.317 3.06q-1.218-.526-2.436-.888-1.185-.362-2.436-.362-1.35 0-2.042.427-.691.395-.691 1.12 0 .559.33.987.361.395 1.217.822.89.395 2.502 1.053 1.614.626 2.733 1.317 1.152.658 1.778 1.645.625.988.625 2.502zm10.15 2.173q.79 0 1.514-.132.724-.165 1.35-.362v3.094q-.659.296-1.712.493-1.054.23-2.206.23-1.514 0-2.765-.493-1.219-.527-1.976-1.777-.724-1.25-.724-3.489v-9.28h-2.403v-1.81l2.633-1.448 1.317-3.785h2.601v3.916h5.07v3.127h-5.07v9.247q0 1.25.659 1.876.658.593 1.712.593zm31.623-20.503-8.132 23.497h-4.51l-8.132-23.497h4.313l4.74 14.381q.231.593.462 1.547.263.922.494 1.909.263.954.395 1.711.098-.757.329-1.711.263-.987.527-1.909.263-.954.46-1.547l4.741-14.381zm6.067 5.66v17.837h-4.148v-17.837Zm-2.074-6.878q.922 0 1.613.494.692.46.692 1.678 0 1.185-.692 1.711-.691.494-1.613.494-.955 0-1.646-.494-.659-.526-.659-1.71 0-1.219.659-1.68.691-.493 1.646-.493zm12.52 25.045q-3.095 0-5.038-2.304-1.91-2.337-1.91-6.911 0-4.575 1.943-6.911 1.943-2.37 5.103-2.37 1.317 0 2.305.362 1.02.33 1.745.922.724.592 1.218 1.316h.197q-.098-.46-.197-1.415-.099-.955-.099-1.777v-6.253h4.148v25.011h-3.226l-.757-2.336h-.165q-.494.724-1.218 1.35-.724.591-1.712.954-.988.362-2.337.362zm1.25-3.357q2.305 0 3.26-1.317.955-1.316.955-3.982v-.526q0-2.896-.922-4.41-.889-1.514-3.358-1.514-1.877 0-2.897 1.58-1.021 1.546-1.021 4.377 0 2.83 1.02 4.31 1.021 1.482 2.964 1.482zm19.895-15.139q2.403 0 4.115.987 1.745.955 2.7 2.765.955 1.777.955 4.344v2.106H174.23q.066 2.436 1.35 3.785 1.284 1.316 3.556 1.316 1.745 0 3.094-.329 1.383-.362 2.832-1.02v3.324q-1.317.625-2.733.921-1.415.297-3.39.297-2.602 0-4.643-.988-2.008-1.02-3.16-3.06-1.12-2.04-1.12-5.069 0-3.06 1.02-5.134 1.054-2.106 2.898-3.159 1.844-1.086 4.313-1.086zm0 3.06q-1.646 0-2.7 1.087-1.02 1.053-1.218 3.16h7.671q0-1.251-.428-2.206-.395-.954-1.218-1.48-.823-.56-2.107-.56zm27.137 6.155q0 2.238-.593 3.95-.592 1.71-1.712 2.928-1.086 1.185-2.7 1.81-1.58.593-3.555.593-1.81 0-3.358-.593-1.547-.625-2.7-1.81-1.119-1.218-1.744-2.929-.626-1.711-.626-3.95 0-2.961 1.02-5.001 1.021-2.074 2.93-3.127 1.943-1.086 4.577-1.086 2.502 0 4.379 1.086 1.91 1.053 2.996 3.127 1.086 2.04 1.086 5.002zm-12.741 0q0 1.876.428 3.225.46 1.316 1.383 2.008.955.69 2.436.69 1.514 0 2.436-.69.955-.692 1.383-2.008.428-1.35.428-3.225 0-1.909-.46-3.192-.429-1.317-1.384-1.975-.921-.691-2.436-.691-2.206 0-3.226 1.514-.988 1.514-.988 4.344zm38.142 2.534q0 2.073-1.02 3.587-1.02 1.514-2.963 2.337-1.91.823-4.576.823-1.284 0-2.47-.165-1.152-.132-2.205-.428-1.021-.296-1.91-.724v-3.95q1.482.66 3.26 1.219 1.777.526 3.62.526 1.417 0 2.305-.362.922-.395 1.35-1.053.428-.691.428-1.58 0-.987-.56-1.678t-1.646-1.284q-1.086-.592-2.7-1.25-1.086-.46-2.14-1.02-1.02-.593-1.843-1.415-.823-.823-1.317-1.942-.494-1.12-.494-2.633 0-2.007.955-3.456.988-1.448 2.733-2.204 1.778-.757 4.115-.757 1.877 0 3.523.395 1.646.394 3.26 1.118l-1.35 3.39q-1.45-.625-2.8-.987-1.349-.362-2.765-.362-1.119 0-1.91.362-.79.329-1.184.954-.395.626-.395 1.448 0 .955.493 1.613.494.658 1.515 1.25 1.053.56 2.7 1.284 1.909.823 3.226 1.711 1.317.889 2.041 2.14.724 1.25.724 3.093zm12.685-11.749q3.127 0 5.037 2.337 1.91 2.303 1.91 6.878 0 3.028-.89 5.1-.889 2.074-2.469 3.127-1.58 1.054-3.687 1.054-1.284 0-2.272-.33-.988-.362-1.679-.888-.691-.56-1.185-1.185h-.263q.131.592.197 1.35.066.723.066 1.382v7.24h-4.148V219.32h3.358l.592 2.37h.198q.494-.757 1.185-1.35.724-.625 1.712-.987 1.02-.362 2.338-.362zm-1.186 3.357q-1.448 0-2.337.592-.889.56-1.284 1.745-.395 1.184-.428 2.961v.527q0 1.909.362 3.225.395 1.317 1.284 2.008.922.69 2.47.69 1.316 0 2.14-.723.855-.724 1.25-2.04.428-1.35.428-3.193 0-2.764-.955-4.278-.921-1.514-2.93-1.514zm18.841-3.357q2.403 0 4.115.987 1.745.955 2.7 2.765.955 1.777.955 4.344v2.106H257.11q.065 2.436 1.35 3.785 1.283 1.316 3.555 1.316 1.745 0 3.095-.329 1.382-.362 2.831-1.02v3.324q-1.317.625-2.733.921-1.415.297-3.39.297-2.601 0-4.643-.988-2.008-1.02-3.16-3.06-1.12-2.04-1.12-5.069 0-3.06 1.021-5.134 1.054-2.106 2.897-3.159 1.844-1.086 4.313-1.086zm0 3.06q-1.646 0-2.7 1.087-1.02 1.053-1.218 3.16h7.671q0-1.251-.428-2.206-.395-.954-1.218-1.48-.823-.56-2.107-.56zm18.38-3.06q2.403 0 4.115.987 1.745.955 2.7 2.765.955 1.777.955 4.344v2.106h-11.787q.066 2.436 1.35 3.785 1.284 1.316 3.556 1.316 1.745 0 3.095-.329 1.382-.362 2.83-1.02v3.324q-1.316.625-2.732.921-1.415.297-3.39.297-2.602 0-4.643-.988-2.008-1.02-3.16-3.06-1.12-2.04-1.12-5.069 0-3.06 1.02-5.134 1.054-2.106 2.898-3.159 1.844-1.086 4.313-1.086zm0 3.06q-1.646 0-2.7 1.087-1.02 1.053-1.218 3.16h7.671q0-1.251-.428-2.206-.395-.954-1.218-1.48-.823-.56-2.107-.56zm17.096 15.436q-3.095 0-5.037-2.304-1.91-2.337-1.91-6.911 0-4.575 1.942-6.911 1.943-2.37 5.103-2.37 1.317 0 2.305.362 1.02.33 1.745.922.724.592 1.218 1.316h.198q-.1-.46-.198-1.415-.099-.955-.099-1.777v-6.253h4.149v25.011h-3.227l-.757-2.336h-.165q-.494.724-1.218 1.35-.724.591-1.712.954-.988.362-2.337.362zm1.25-3.357q2.305 0 3.26-1.317.955-1.316.955-3.982v-.526q0-2.896-.922-4.41-.889-1.514-3.358-1.514-1.877 0-2.897 1.58-1.02 1.546-1.02 4.377 0 2.83 1.02 4.31 1.02 1.482 2.963 1.482z" aria-label="Adjust Video Speed" style="font-weight:600;font-size:132px;font-family:&quot;League Spartan Thin&quot;;-inkscape-font-specification:&quot;League Spartan Thin, Semi-Bold&quot;;letter-spacing:-3px;fill:#1a5002;fill-opacity:1;stroke-width:.249366"/><path d="M33.168 264.201q2.107 0 3.384 1.468 1.298 1.468 1.298 4.425 0 1.936-.596 3.277-.575 1.319-1.639 2-1.043.66-2.469.66-.872 0-1.553-.235-.681-.234-1.171-.596-.468-.383-.809-.83h-.127q.042.362.085.915.042.554.042.958v4.68H27.74v-16.51h1.533l.255 1.554h.085q.34-.49.809-.894.49-.404 1.15-.638.68-.234 1.596-.234zm-.34 1.574q-1.15 0-1.853.447-.702.426-1.021 1.298-.32.872-.34 2.213v.361q0 1.404.297 2.383.298.979 1 1.49.724.51 1.959.51 1.043 0 1.702-.574.681-.575 1-1.554.341-1 .341-2.276 0-1.957-.766-3.127-.745-1.17-2.32-1.17zm9.875 10.042H40.83v-16.169h1.873zm7.938-11.595q2.086 0 3.086.915t1 2.915v7.765h-1.362l-.361-1.617h-.085q-.49.617-1.022 1.043-.51.404-1.192.596-.66.191-1.617.191-1.022 0-1.852-.362-.809-.361-1.277-1.106-.468-.766-.468-1.915 0-1.702 1.34-2.617 1.341-.936 4.13-1.02l1.936-.065v-.68q0-1.426-.617-1.979-.617-.553-1.745-.553-.894 0-1.703.276-.809.256-1.511.596l-.575-1.404q.745-.404 1.767-.68 1.021-.299 2.128-.299zm.554 6.085q-2.129.085-2.959.68-.809.597-.809 1.682 0 .957.575 1.404.596.447 1.511.447 1.447 0 2.405-.788.958-.808.958-2.468v-1.02zm5.278-5.893h2l2.47 6.489q.212.574.382 1.106.192.532.341 1.043.149.489.234.957h.085q.128-.532.405-1.383.276-.872.574-1.745l2.32-6.467h2.022l-4.916 12.978q-.405 1.063-.958 1.85-.532.81-1.32 1.235-.766.446-1.873.446-.51 0-.894-.063-.383-.043-.66-.107v-1.49q.235.044.554.086.34.043.702.043.66 0 1.128-.256.49-.234.83-.702.34-.447.575-1.064l.596-1.51Zm20.687 11.403-4.32-11.403h2l2.427 6.723q.17.468.361 1.042.192.575.341 1.107.149.51.213.872h.085q.085-.362.234-.894.17-.532.362-1.106.213-.574.362-1.021l2.426-6.723h2l-4.341 11.403zm10.174-11.403v11.403H85.46v-11.403zm-.916-4.276q.426 0 .745.297.34.277.34.894 0 .596-.34.893-.319.298-.745.298-.468 0-.787-.298-.32-.297-.32-.893 0-.617.32-.894.32-.297.787-.297zm8.578 15.892q-2.129 0-3.406-1.468-1.277-1.49-1.277-4.425 0-2.936 1.277-4.425 1.299-1.51 3.427-1.51.894 0 1.554.233.66.213 1.149.596.49.383.83.85h.128q-.022-.276-.085-.808-.043-.553-.043-.872v-4.553h1.873v16.17h-1.511l-.277-1.532h-.085q-.34.489-.83.893-.49.383-1.17.617-.66.234-1.554.234zm.298-1.553q1.809 0 2.532-.979.745-1 .745-3v-.34q0-2.127-.702-3.255-.702-1.149-2.597-1.149-1.51 0-2.277 1.213-.745 1.191-.745 3.212 0 2.043.745 3.17.766 1.128 2.299 1.128zm13.153-10.276q1.468 0 2.511.638 1.064.639 1.618 1.809.574 1.149.574 2.702v1.127h-7.81q.042 1.936.978 2.957.958 1 2.66 1 1.086 0 1.916-.191.852-.213 1.746-.596v1.638q-.873.383-1.724.554-.852.191-2.022.191-1.618 0-2.874-.66-1.234-.659-1.936-1.957-.681-1.319-.681-3.212 0-1.873.617-3.213.638-1.34 1.766-2.064 1.15-.723 2.66-.723zm-.022 1.532q-1.34 0-2.128.872-.766.851-.915 2.383h5.81q0-.979-.298-1.702t-.915-1.128q-.596-.425-1.554-.425zm17.538 4.361q0 1.426-.383 2.532-.362 1.085-1.064 1.851-.681.766-1.682 1.17-.979.383-2.192.383-1.128 0-2.086-.383-.958-.404-1.66-1.17-.702-.766-1.107-1.851-.383-1.106-.383-2.532 0-1.893.639-3.191.638-1.319 1.83-2 1.192-.702 2.83-.702 1.555 0 2.725.702 1.192.681 1.852 2 .68 1.298.68 3.191zm-8.62 0q0 1.34.34 2.34.362.98 1.107 1.511.745.532 1.895.532 1.149 0 1.894-.532.745-.532 1.085-1.51.362-1 .362-2.34 0-1.362-.362-2.32-.362-.957-1.106-1.468-.724-.532-1.895-.532-1.745 0-2.532 1.15-.788 1.148-.788 3.17zm19.006 2.575q0 1.106-.553 1.85-.554.745-1.575 1.128-1.022.383-2.427.383-1.191 0-2.064-.191-.851-.192-1.511-.532v-1.702q.68.34 1.639.638.979.277 1.979.277 1.426 0 2.065-.447.638-.468.638-1.234 0-.426-.234-.766t-.851-.68q-.596-.341-1.724-.767-1.107-.425-1.895-.85-.787-.426-1.213-1.022-.425-.596-.425-1.532 0-1.447 1.17-2.234 1.192-.787 3.108-.787 1.042 0 1.936.213.915.191 1.703.553l-.639 1.49q-.723-.299-1.51-.511-.788-.213-1.618-.213-1.15 0-1.767.383-.596.362-.596 1 0 .468.277.808.277.32.915.638.66.298 1.745.724 1.086.404 1.852.83.766.425 1.17 1.042.405.596.405 1.51zm15.728 0q0 1.106-.553 1.85-.553.745-1.575 1.128-1.021.383-2.426.383-1.192 0-2.065-.191-.851-.192-1.51-.532v-1.702q.68.34 1.638.638.98.277 1.98.277 1.425 0 2.064-.447.638-.468.638-1.234 0-.426-.234-.766t-.851-.68q-.596-.341-1.724-.767-1.107-.425-1.894-.85-.788-.426-1.213-1.022-.426-.596-.426-1.532 0-1.447 1.17-2.234 1.192-.787 3.108-.787 1.043 0 1.937.213.915.191 1.702.553l-.638 1.49q-.724-.299-1.511-.511-.788-.213-1.618-.213-1.15 0-1.766.383-.596.362-.596 1 0 .468.276.808.277.32.916.638.66.298 1.745.724 1.085.404 1.852.83.766.425 1.17 1.042.404.596.404 1.51zm4.64 3.148h-1.873v-16.169h1.873zm13.536-5.723q0 1.426-.383 2.532-.361 1.085-1.064 1.851-.68.766-1.681 1.17-.98.383-2.192.383-1.128 0-2.086-.383-.958-.404-1.66-1.17-.703-.766-1.107-1.851-.383-1.106-.383-2.532 0-1.893.638-3.191.639-1.319 1.83-2 1.193-.702 2.831-.702 1.554 0 2.725.702 1.192.681 1.851 2 .681 1.298.681 3.191zm-8.62 0q0 1.34.341 2.34.362.98 1.107 1.511.745.532 1.894.532 1.15 0 1.894-.532.745-.532 1.086-1.51.362-1 .362-2.34 0-1.362-.362-2.32-.362-.957-1.107-1.468-.724-.532-1.894-.532-1.745 0-2.533 1.15-.787 1.148-.787 3.17zm18.517-.723q-.128-.447-.255-.872-.128-.447-.234-.83-.085-.404-.17-.745-.086-.34-.128-.574h-.085q-.043.234-.128.574-.064.34-.17.745-.086.404-.213.85-.107.426-.256.873l-2.043 6.404h-2.128l-3.129-11.403h1.937l1.575 6.084q.17.617.32 1.255.148.617.255 1.192.127.553.17.957h.085q.064-.255.149-.638.085-.383.17-.808l.213-.851q.128-.426.234-.766l2.022-6.425h2.043l1.958 6.425q.15.489.298 1.042.17.553.298 1.085.128.51.17.915h.086q.042-.362.149-.894.127-.553.276-1.191.17-.66.34-1.298l1.597-6.084h1.916l-3.172 11.403h-2.192zm13.77-5.17q1.469 0 2.512.638 1.064.639 1.617 1.809.575 1.149.575 2.702v1.127h-7.81q.042 1.936.978 2.957.958 1 2.66 1 1.086 0 1.916-.191.851-.213 1.745-.596v1.638q-.872.383-1.724.554-.851.191-2.022.191-1.617 0-2.873-.66-1.234-.659-1.937-1.957-.68-1.319-.68-3.212 0-1.873.617-3.213.638-1.34 1.766-2.064 1.15-.723 2.66-.723zm-.02 1.532q-1.342 0-2.13.872-.765.851-.914 2.383h5.81q0-.979-.298-1.702t-.915-1.128q-.596-.425-1.554-.425zm12.94-1.532q.319 0 .68.043.384.02.66.085l-.234 1.723q-.277-.064-.617-.106-.32-.043-.617-.043-.66 0-1.256.277-.596.276-1.064.787-.468.49-.745 1.191-.256.702-.256 1.575v6.084h-1.872v-11.403h1.532l.213 2.085h.085q.362-.638.873-1.15.51-.53 1.17-.829.66-.319 1.447-.319zm13.663-3.808q1.15 0 1.958.404.83.383 1.277 1.106.447.724.447 1.766 0 1.34-.872 2.277-.852.936-2.171 1.702l4.107 3.957q.554-.66.894-1.51.362-.873.596-1.873h1.895q-.341 1.362-.852 2.532-.51 1.17-1.32 2.042l3.108 3.021h-2.533l-1.851-1.787q-.66.596-1.426 1.043-.767.446-1.703.702-.915.255-2.107.255-1.469 0-2.554-.468-1.064-.49-1.66-1.425-.575-.937-.575-2.277 0-1.085.383-1.872.405-.787 1.15-1.404.744-.617 1.745-1.192-.447-.51-.873-1.063-.425-.554-.702-1.192-.277-.66-.277-1.425 0-1.043.468-1.787.469-.745 1.341-1.128.894-.404 2.107-.404zm-.936 8.17q-.766.446-1.32.914-.532.447-.83 1-.298.553-.298 1.32 0 1.17.788 1.872.787.702 2.107.702 1.362 0 2.34-.447.98-.447 1.64-1.064zm.872-6.638q-.893 0-1.468.468-.553.468-.553 1.297 0 .766.404 1.426.404.638 1.17 1.425 1.256-.723 1.788-1.361.554-.66.554-1.51 0-.767-.511-1.256-.51-.49-1.384-.49zm21.773 3.936h-2.873v9.956h-1.873v-9.956h-2v-.873l2-.638v-.66q0-1.468.426-2.382.447-.915 1.277-1.34.83-.426 2-.426.681 0 1.235.127.574.107.979.256l-.49 1.468q-.34-.107-.787-.213t-.915-.106q-.937 0-1.405.638-.447.617-.447 1.957v.745h2.873zm6.385-1.639q2.086 0 3.086.915t1 2.915v7.765h-1.361l-.362-1.617h-.085q-.49.617-1.022 1.043-.51.404-1.192.596-.66.191-1.617.191-1.022 0-1.852-.362-.809-.361-1.277-1.106-.468-.766-.468-1.915 0-1.702 1.34-2.617 1.341-.936 4.13-1.02l1.936-.065v-.68q0-1.426-.617-1.979-.617-.553-1.745-.553-.894 0-1.703.276-.809.256-1.51.596l-.576-1.404q.745-.404 1.767-.68 1.022-.299 2.128-.299zm.554 6.085q-2.129.085-2.959.68-.809.597-.809 1.682 0 .957.575 1.404.596.447 1.511.447 1.448 0 2.405-.788.958-.808.958-2.468v-1.02zm14.494 2.362q0 1.106-.554 1.85-.553.745-1.575 1.128-1.021.383-2.426.383-1.192 0-2.064-.191-.852-.192-1.512-.532v-1.702q.681.34 1.64.638.978.277 1.979.277 1.426 0 2.064-.447.639-.468.639-1.234 0-.426-.235-.766-.234-.34-.85-.68-.597-.341-1.725-.767-1.107-.425-1.894-.85-.788-.426-1.213-1.022-.426-.596-.426-1.532 0-1.447 1.17-2.234 1.193-.787 3.108-.787 1.043 0 1.937.213.915.191 1.702.553l-.638 1.49q-.724-.299-1.511-.511-.788-.213-1.618-.213-1.149 0-1.766.383-.596.362-.596 1 0 .468.277.808.276.32.915.638.66.298 1.745.724 1.085.404 1.852.83.766.425 1.17 1.042.405.596.405 1.51zm6.576 1.83q.426 0 .873-.065.447-.085.723-.17v1.426q-.298.149-.85.234-.554.106-1.065.106-.894 0-1.66-.298-.745-.319-1.213-1.085-.469-.766-.469-2.149v-6.637h-1.617v-.894l1.639-.745.745-2.425h1.106v2.617h3.3v1.447h-3.3v6.595q0 1.042.49 1.553.51.49 1.298.49zm8.28-10.298q1.468 0 2.51.638 1.065.639 1.618 1.809.575 1.149.575 2.702v1.127h-7.811q.043 1.936.979 2.957.958 1 2.66 1 1.086 0 1.916-.191.851-.213 1.745-.596v1.638q-.872.383-1.724.554-.851.191-2.022.191-1.617 0-2.873-.66-1.234-.659-1.937-1.957-.68-1.319-.68-3.212 0-1.873.616-3.213.639-1.34 1.767-2.064 1.15-.723 2.66-.723zm-.022 1.532q-1.34 0-2.128.872-.766.851-.915 2.383h5.81q0-.979-.298-1.702t-.915-1.128q-.596-.425-1.554-.425zm12.94-1.532q.32 0 .682.043.383.02.66.085l-.235 1.723q-.277-.064-.617-.106-.32-.043-.617-.043-.66 0-1.256.277-.596.276-1.064.787-.468.49-.745 1.191-.255.702-.255 1.575v6.084h-1.873v-11.403h1.532l.213 2.085h.085q.362-.638.873-1.15.51-.53 1.17-.829.66-.319 1.447-.319z" aria-label="play videos slower &amp; faster" style="font-size:85.3333px;font-family:&quot;League Spartan Thin&quot;;-inkscape-font-specification:&quot;League Spartan Thin, &quot;;text-align:center;text-anchor:middle;fill:#1a5002;fill-opacity:1;stroke-width:.249366"/><g aria-label="with musical finer steps" style="font-size:85.3333px;font-family:&quot;League Spartan Thin&quot;;-inkscape-font-specification:&quot;League Spartan Thin, &quot;;text-align:center;text-anchor:middle;fill:#1a5002;fill-opacity:1"><path d="M205.184 1035.971q-.512-1.792-1.024-3.498-.512-1.792-.938-3.328-.342-1.622-.683-2.987t-.512-2.304h-.341q-.171.939-.512 2.304-.256 1.365-.683 2.987-.341 1.621-.853 3.413-.427 1.707-1.024 3.499l-8.192 25.685h-8.534l-12.544-45.739h7.766l6.314 24.406q.683 2.474 1.28 5.034.598 2.475 1.024 4.779.512 2.219.683 3.84h.341q.256-1.024.598-2.56.341-1.536.682-3.243l.854-3.413q.512-1.707.938-3.072l8.107-25.77h8.192l7.85 25.77q.598 1.963 1.195 4.181.683 2.219 1.195 4.352.512 2.048.683 3.67h.341q.17-1.451.597-3.584.512-2.219 1.11-4.779.682-2.645 1.365-5.205l6.4-24.406h7.68l-12.715 45.739h-8.789zM250.24 1016.089v45.738h-7.509v-45.738zm-3.669-17.152q1.707 0 2.987 1.194 1.365 1.11 1.365 3.584 0 2.39-1.365 3.584-1.28 1.195-2.987 1.195-1.877 0-3.157-1.195-1.28-1.194-1.28-3.584 0-2.474 1.28-3.584 1.28-1.194 3.157-1.194zm33.45 57.6q1.707 0 3.5-.256 1.791-.342 2.9-.683v5.717q-1.194.598-3.413.939-2.218.427-4.266.427-3.584 0-6.656-1.195-2.987-1.28-4.864-4.352-1.878-3.072-1.878-8.619v-26.624h-6.485v-3.584l6.57-2.986 2.987-9.728h4.438v10.496h13.226v5.802h-13.226v26.454q0 4.181 1.962 6.229 2.048 1.963 5.206 1.963zm23.04-40.534q0 1.622-.17 3.328-.085 1.707-.256 3.072h.512q1.45-2.389 3.67-3.925 2.218-1.536 4.949-2.304 2.73-.853 5.632-.853 5.546 0 9.216 1.792 3.754 1.706 5.632 5.376 1.877 3.669 1.877 9.557v29.781h-7.424v-29.269q0-5.547-2.475-8.277-2.474-2.731-7.765-2.731-5.12 0-8.021 1.963-2.902 1.877-4.182 5.632-1.194 3.669-1.194 9.045v23.637h-7.51v-64.853h7.51zm117.59-.768q7.765 0 11.605 4.011 3.84 3.925 3.84 12.8v29.781h-7.424v-29.44q0-5.376-2.304-8.106-2.218-2.731-6.997-2.731-6.656 0-9.557 3.84-2.816 3.84-2.816 11.179v25.258h-7.424v-29.44q0-3.584-1.024-5.973-1.024-2.475-3.072-3.67-2.048-1.194-5.291-1.194-4.608 0-7.253 1.963-2.646 1.877-3.84 5.546-1.11 3.67-1.11 9.046v23.722h-7.51v-45.738h6.06l1.109 6.229h.427q1.45-2.39 3.498-3.925 2.134-1.622 4.694-2.39t5.29-.768q5.29 0 8.79 1.878 3.584 1.877 5.205 5.802h.427q2.304-3.925 6.229-5.802 4.01-1.878 8.448-1.878zm67.84.854v45.738h-6.144l-1.11-6.058h-.34q-1.452 2.389-3.756 3.925t-5.034 2.219q-2.73.768-5.718.768-5.46 0-9.216-1.707-3.669-1.792-5.546-5.461-1.878-3.67-1.878-9.472v-29.952h7.595v29.44q0 5.461 2.475 8.192 2.474 2.73 7.68 2.73 5.12 0 8.021-1.877 2.987-1.963 4.181-5.632 1.28-3.755 1.28-9.045v-23.808zm44.288 33.109q0 4.437-2.219 7.424t-6.315 4.523q-4.096 1.536-9.728 1.536-4.778 0-8.277-.768-3.413-.768-6.059-2.134v-6.826q2.731 1.365 6.571 2.56 3.925 1.109 7.936 1.109 5.717 0 8.277-1.792 2.56-1.877 2.56-4.95 0-1.706-.938-3.071-.939-1.366-3.414-2.731-2.389-1.365-6.912-3.072-4.437-1.707-7.594-3.413-3.158-1.707-4.864-4.096-1.707-2.39-1.707-6.144 0-5.803 4.693-8.96 4.78-3.158 12.46-3.158 4.18 0 7.764.854 3.67.768 6.827 2.218l-2.56 5.974q-2.901-1.195-6.059-2.048-3.157-.854-6.485-.854-4.608 0-7.083 1.536-2.389 1.451-2.389 4.011 0 1.877 1.11 3.243 1.109 1.28 3.669 2.56 2.645 1.194 6.997 2.901 4.352 1.621 7.424 3.328 3.072 1.707 4.693 4.181 1.622 2.39 1.622 6.059zm18.602-33.11v45.74h-7.509v-45.74zm-3.669-17.151q1.707 0 2.987 1.194 1.365 1.11 1.365 3.584 0 2.39-1.365 3.584-1.28 1.195-2.987 1.195-1.877 0-3.157-1.195-1.28-1.194-1.28-3.584 0-2.474 1.28-3.584 1.28-1.194 3.157-1.194zm36.523 63.744q-6.059 0-10.838-2.475-4.693-2.475-7.424-7.68-2.645-5.205-2.645-13.312 0-8.448 2.816-13.739 2.816-5.29 7.595-7.765 4.864-2.475 11.008-2.475 3.498 0 6.741.768 3.243.683 5.29 1.707l-2.303 6.23q-2.048-.769-4.779-1.451-2.73-.683-5.12-.683-4.608 0-7.595 1.963-2.986 1.962-4.437 5.802-1.45 3.84-1.45 9.558 0 5.461 1.45 9.301t4.352 5.803q2.901 1.962 7.253 1.962 3.755 0 6.571-.768 2.901-.768 5.29-1.877v6.656q-2.303 1.195-5.12 1.792-2.73.683-6.655.683zm39.936-47.36q8.362 0 12.373 3.669 4.01 3.67 4.01 11.69v31.147h-5.46l-1.451-6.485h-.342q-1.962 2.475-4.096 4.181-2.048 1.622-4.778 2.39-2.646.768-6.486.768-4.096 0-7.424-1.451-3.242-1.45-5.12-4.437-1.877-3.072-1.877-7.68 0-6.827 5.376-10.496 5.376-3.755 16.555-4.096l7.765-.256v-2.731q0-5.717-2.475-7.936-2.474-2.219-6.997-2.219-3.584 0-6.827 1.11-3.242 1.024-6.058 2.389l-2.304-5.632q2.986-1.621 7.082-2.73 4.096-1.195 8.534-1.195zm2.218 24.405q-8.533.341-11.861 2.73-3.243 2.39-3.243 6.742 0 3.84 2.304 5.632 2.39 1.792 6.059 1.792 5.803 0 9.643-3.157 3.84-3.243 3.84-9.899v-4.096zm35.84 22.101h-7.509v-64.853h7.51zM720 1021.891h-11.52v39.936h-7.51v-39.936h-8.02v-3.498l8.02-2.56v-2.646q0-5.888 1.707-9.557 1.792-3.67 5.12-5.376 3.328-1.707 8.022-1.707 2.73 0 4.949.512 2.304.427 3.925 1.024l-1.962 5.888q-1.366-.426-3.158-.853-1.792-.427-3.669-.427-3.755 0-5.632 2.56-1.792 2.475-1.792 7.851v2.987H720zm15.787-5.802v45.738h-7.51v-45.738zm-3.67-17.152q1.707 0 2.987 1.194 1.365 1.11 1.365 3.584 0 2.39-1.365 3.584-1.28 1.195-2.987 1.195-1.877 0-3.157-1.195-1.28-1.194-1.28-3.584 0-2.474 1.28-3.584 1.28-1.194 3.157-1.194zm40.192 16.298q8.192 0 12.374 4.011 4.18 3.925 4.18 12.8v29.781h-7.423v-29.269q0-5.547-2.475-8.277-2.474-2.731-7.765-2.731-7.595 0-10.496 4.267-2.901 4.266-2.901 12.288v23.722h-7.51v-45.738h6.059l1.11 6.229h.426q1.536-2.39 3.755-3.925 2.304-1.622 5.034-2.39t5.632-.768zm48.384 0q5.888 0 10.07 2.56 4.266 2.56 6.485 7.254 2.304 4.608 2.304 10.837v4.523h-31.317q.17 7.765 3.925 11.861 3.84 4.01 10.667 4.01 4.352 0 7.68-.767 3.413-.854 6.997-2.39v6.571q-3.499 1.536-6.912 2.219-3.413.768-8.107.768-6.485 0-11.52-2.646-4.95-2.645-7.765-7.85-2.73-5.291-2.73-12.886 0-7.509 2.474-12.885 2.56-5.376 7.083-8.277 4.608-2.902 10.666-2.902zm-.085 6.144q-5.376 0-8.533 3.499-3.072 3.413-3.67 9.557h23.296q0-3.925-1.194-6.826-1.195-2.902-3.67-4.523-2.39-1.707-6.23-1.707zm51.883-6.144q1.28 0 2.73.171 1.536.085 2.646.341l-.94 6.912q-1.108-.256-2.474-.426-1.28-.171-2.474-.171-2.646 0-5.035 1.11-2.39 1.109-4.267 3.157-1.877 1.962-2.986 4.778-1.024 2.816-1.024 6.315v24.405h-7.51v-45.738h6.144l.854 8.362h.34q1.452-2.56 3.5-4.608 2.048-2.133 4.693-3.328 2.645-1.28 5.803-1.28zm65.877 33.963q0 4.437-2.219 7.424-2.218 2.987-6.314 4.523-4.096 1.536-9.728 1.536-4.78 0-8.278-.768-3.413-.768-6.058-2.134v-6.826q2.73 1.365 6.57 2.56 3.926 1.109 7.936 1.109 5.718 0 8.278-1.792 2.56-1.877 2.56-4.95 0-1.706-.94-3.071-.938-1.366-3.412-2.731-2.39-1.365-6.912-3.072-4.438-1.707-7.595-3.413-3.157-1.707-4.864-4.096-1.707-2.39-1.707-6.144 0-5.803 4.694-8.96 4.778-3.158 12.458-3.158 4.182 0 7.766.854 3.669.768 6.826 2.218l-2.56 5.974q-2.901-1.195-6.058-2.048-3.158-.854-6.486-.854-4.608 0-7.082 1.536-2.39 1.451-2.39 4.011 0 1.877 1.11 3.243 1.109 1.28 3.669 2.56 2.645 1.194 6.997 2.901 4.352 1.621 7.424 3.328 3.072 1.707 4.693 4.181 1.622 2.39 1.622 6.059zm26.368 7.339q1.706 0 3.498-.256 1.792-.342 2.902-.683v5.717q-1.195.598-3.414.939-2.218.427-4.266.427-3.584 0-6.656-1.195-2.987-1.28-4.864-4.352-1.878-3.072-1.878-8.619v-26.624h-6.485v-3.584l6.57-2.986 2.987-9.728h4.438v10.496h13.226v5.802h-13.226v26.454q0 4.181 1.962 6.229 2.048 1.963 5.206 1.963zm33.195-41.302q5.888 0 10.069 2.56 4.267 2.56 6.485 7.254 2.304 4.608 2.304 10.837v4.523h-31.317q.17 7.765 3.925 11.861 3.84 4.01 10.667 4.01 4.352 0 7.68-.767 3.413-.854 6.997-2.39v6.571q-3.498 1.536-6.912 2.219-3.413.768-8.106.768-6.486 0-11.52-2.646-4.95-2.645-7.766-7.85-2.73-5.291-2.73-12.886 0-7.509 2.474-12.885 2.56-5.376 7.083-8.277 4.608-2.902 10.667-2.902zm-.086 6.144q-5.376 0-8.533 3.499-3.072 3.413-3.67 9.557h23.297q0-3.925-1.195-6.826-1.195-2.902-3.67-4.523-2.389-1.707-6.229-1.707zm52.31-6.144q8.448 0 13.568 5.888 5.205 5.888 5.205 17.75 0 7.765-2.39 13.141-2.303 5.29-6.57 8.021-4.181 2.646-9.899 2.646-3.498 0-6.23-.939-2.73-.939-4.692-2.39-1.878-1.535-3.243-3.327h-.512q.17 1.45.341 3.669.17 2.219.17 3.84v18.773h-7.508v-66.218h6.144l1.024 6.229h.34q1.366-1.963 3.244-3.584 1.962-1.621 4.608-2.56 2.73-.939 6.4-.939zm-1.366 6.315q-4.608 0-7.424 1.792-2.816 1.707-4.096 5.205-1.28 3.499-1.365 8.875v1.45q0 5.633 1.195 9.558 1.194 3.925 4.01 5.973 2.902 2.048 7.85 2.048 4.182 0 6.828-2.304 2.73-2.304 4.01-6.229 1.366-4.01 1.366-9.13 0-7.851-3.072-12.545-2.987-4.693-9.302-4.693zm61.867 27.648q0 4.437-2.219 7.424t-6.315 4.523q-4.096 1.536-9.728 1.536-4.778 0-8.277-.768-3.413-.768-6.059-2.134v-6.826q2.731 1.365 6.571 2.56 3.925 1.109 7.936 1.109 5.717 0 8.277-1.792 2.56-1.877 2.56-4.95 0-1.706-.938-3.071-.939-1.366-3.414-2.731-2.389-1.365-6.912-3.072-4.437-1.707-7.594-3.413-3.158-1.707-4.864-4.096-1.707-2.39-1.707-6.144 0-5.803 4.693-8.96 4.78-3.158 12.46-3.158 4.18 0 7.764.854 3.67.768 6.827 2.218l-2.56 5.974q-2.901-1.195-6.059-2.048-3.157-.854-6.485-.854-4.608 0-7.083 1.536-2.389 1.451-2.389 4.011 0 1.877 1.11 3.243 1.109 1.28 3.669 2.56 2.645 1.194 6.997 2.901 4.352 1.621 7.424 3.328 3.072 1.707 4.693 4.181 1.622 2.39 1.622 6.059z" style="fill:#1a5002;fill-opacity:1" transform="matrix(.24941 0 0 .24932 .625 36.625)"/></g><rect width="319.25" height="187.553" x=".75" y=".75" ry="33.31" style="fill:#195002;fill-opacity:1;stroke-width:.254892"/><path d="M170.622 40.4c-3.043.067-4.505 1.332-5.5 1.929-8.584 5.148-12.9 26.098-12.975 52.199.074 26.1 4.391 47.048 12.976 52.197 3.534 2.12 12.993 12.7 78.345-52.199-46.972-46.646-65.069-54.299-72.846-54.126z" style="fill:#c7fdaf;fill-opacity:1;stroke-width:.184332"/><path d="M94.862 40.4c-3.043.067-4.506 1.332-5.5 1.929-8.585 5.148-12.902 26.098-12.976 52.199.074 26.1 4.391 47.048 12.976 52.197 3.534 2.12 12.993 12.7 78.345-52.199C120.735 47.88 102.638 40.227 94.862 40.4z" style="fill:#c6fdaf;fill-opacity:1;stroke-width:.184332"/><path d="M152.674 80.002a209.306 209.306 0 0 0-.527 14.526c.015 5.065.193 9.928.527 14.527a742.467 742.467 0 0 0 15.033-14.528 740.956 740.956 0 0 0-15.033-14.525z" style="fill:#eefee7;fill-opacity:1;stroke-width:.184332"/></svg>